<svg width="78" height="73" viewBox="0 0 78 73" fill="none" xmlns="http://www.w3.org/2000/svg">
<g clip-path="url(#clip0_731_487)">
<path d="M0.000123389 72.9849V4.56204C4.31565 4.56204 8.62964 4.57729 12.9452 4.54526C13.5787 4.54069 13.7268 4.69168 13.7237 5.32312C13.6993 13.4068 13.7069 21.4904 13.7069 29.5741V30.4923C15.0594 29.8227 16.3081 29.1821 17.5782 28.5873C18.0865 28.3493 18.2987 28.0779 18.2957 27.4647C18.2652 20.1162 18.2911 12.7677 18.2545 5.41921C18.2514 4.65355 18.4728 4.53763 19.1704 4.54526C23.1043 4.58187 27.0397 4.56204 30.9736 4.56204C31.6463 4.56204 31.9826 4.88538 31.9826 5.53208C31.9826 13.5654 31.9826 21.5972 31.9826 29.6305V30.4969C35.0952 28.9472 38.0735 27.4647 41.122 25.9471C41.122 29.3011 41.1434 32.5193 41.1052 35.7375C41.0976 36.3811 41.2686 36.5093 41.8914 36.5077C53.6686 36.4864 65.4474 36.4986 77.2246 36.4757C77.8673 36.4757 77.9986 36.6359 77.9971 37.2581C77.9757 48.8895 77.9742 60.5208 77.9986 72.1521C77.9986 72.8506 77.8169 73.0001 77.1376 73.0001C51.4246 72.9818 25.7116 72.9849 -0.00292969 72.9849H0.000123389ZM38.9894 50.1767C27.745 50.1767 16.5005 50.1813 5.25599 50.163C4.6866 50.163 4.55226 50.2942 4.55531 50.8631C4.57974 56.4881 4.57974 62.1146 4.55531 67.7396C4.55226 68.3085 4.68965 68.4382 5.25752 68.4382C20.0817 68.4199 34.9044 68.4199 49.7286 68.4382C50.295 68.4382 50.4354 68.3101 50.4308 67.7396C50.4034 63.6353 50.4293 59.5294 50.4018 55.425C50.3988 54.8561 50.5346 54.7234 51.1025 54.7249C56.7125 54.7493 62.321 54.7509 67.9311 54.7234C68.5646 54.7204 68.7142 54.8698 68.7096 55.5013C68.6776 59.6056 68.702 63.7115 68.6806 67.8159C68.6776 68.3146 68.8088 68.4519 69.305 68.4351C70.4453 68.397 71.5902 68.3863 72.7305 68.4382C73.3091 68.4641 73.4312 68.2963 73.4281 67.7351C73.4052 62.1345 73.4022 56.5354 73.4312 50.9348C73.4342 50.2957 73.274 50.16 72.6481 50.1615C61.4295 50.1828 50.2095 50.1767 38.9894 50.1767V50.1767ZM18.2682 33.3765C13.7344 35.6353 9.32269 37.8393 4.90336 40.0279C4.59042 40.1835 4.56447 40.397 4.566 40.6868C4.57516 42.055 4.6179 43.4246 4.55073 44.7897C4.51562 45.5111 4.7614 45.6285 5.42239 45.6285C27.806 45.6118 50.1881 45.6148 72.5718 45.6148C72.6725 45.6148 72.7763 45.6011 72.8755 45.6163C73.2984 45.6819 73.4388 45.5248 73.4266 45.0856C73.3946 44.0225 73.3717 42.9548 73.4327 41.8948C73.4709 41.213 73.2816 41.0331 72.5824 41.0346C60.8067 41.059 49.0325 41.0483 37.2568 41.0636C36.7164 41.0636 36.5287 40.9766 36.5393 40.3803C36.5821 38.0818 36.5561 35.7833 36.5561 33.3704C33.4588 34.9139 30.4469 36.4132 27.4366 37.914C24.4064 39.4255 21.3762 40.94 18.2697 42.4912V33.3734L18.2682 33.3765ZM54.9845 63.7863C54.9845 65.1544 55.0013 66.5225 54.9738 67.8906C54.9647 68.3207 55.0883 68.4367 55.5173 68.4336C58.207 68.4138 60.8983 68.4138 63.5881 68.4336C64.0186 68.4367 64.1346 68.3207 64.1315 67.8906C64.1117 65.2047 64.1117 62.5188 64.1315 59.8344C64.1346 59.4058 64.0186 59.2884 63.5881 59.2914C60.8983 59.3113 58.207 59.3113 55.5173 59.2914C55.0868 59.2884 54.9631 59.4043 54.9723 59.8344C54.9998 61.1507 54.983 62.4685 54.983 63.7863H54.9845ZM4.56905 35.0618C6.08491 34.3038 7.49237 33.5885 8.91205 32.8991C9.20362 32.7572 9.13493 32.5391 9.13645 32.3286C9.13951 27.7987 9.1334 23.2704 9.14867 18.7405C9.14867 18.3409 9.04028 18.2295 8.64338 18.2387C7.45268 18.2646 6.26046 18.2631 5.06976 18.2387C4.67744 18.231 4.55989 18.3348 4.56142 18.7389C4.57516 24.1275 4.57058 29.5177 4.57058 35.0634L4.56905 35.0618ZM22.8463 35.0588C24.353 34.3084 25.7223 33.6174 27.1008 32.9494C27.3816 32.8137 27.4198 32.6261 27.4198 32.353C27.4137 27.8231 27.4076 23.2948 27.4259 18.7649C27.4274 18.3165 27.2809 18.2265 26.8687 18.2356C25.7544 18.2615 24.6369 18.2829 23.5241 18.2295C22.9348 18.2005 22.8295 18.3866 22.8326 18.9372C22.8555 24.0742 22.8463 29.2096 22.8463 34.3465V35.0573V35.0588ZM6.86955 9.16667C6.11849 9.18803 5.11708 8.79604 4.68812 9.26734C4.31717 9.67457 4.55989 10.6599 4.57669 11.3889C4.595 12.1393 4.24695 13.1383 4.71407 13.5669C5.11861 13.9376 6.10933 13.695 6.83901 13.6783C7.59007 13.66 8.59148 14.0077 9.02044 13.541C9.39139 13.1368 9.14867 12.1485 9.13188 11.4194C9.11356 10.669 9.46313 9.66694 8.99296 9.24293C8.59148 8.87993 7.59923 9.1682 6.86802 9.1682L6.86955 9.16667ZM27.4168 11.4301C27.4168 10.8215 27.3877 10.213 27.4259 9.60746C27.4534 9.18498 27.287 9.10871 26.9084 9.11481C25.7162 9.13617 24.5224 9.14227 23.3317 9.11176C22.9104 9.10109 22.8326 9.25209 22.8387 9.62881C22.86 10.8185 22.8661 12.0097 22.8356 13.1994C22.8249 13.6203 22.9761 13.6981 23.3531 13.6905C24.5453 13.6691 25.7391 13.663 26.9298 13.6935C27.3511 13.7042 27.4397 13.5547 27.4213 13.1765C27.3939 12.5954 27.4137 12.0112 27.4137 11.4286L27.4168 11.4301Z" fill="white"/>
<path d="M59.5533 0C60.654 0.202854 61.7607 0.373678 62.8522 0.616188C67.3799 1.62131 71.2878 3.78102 74.6554 6.95195C74.9927 7.26919 75.0217 7.44154 74.6722 7.76794C73.8387 8.54732 73.0311 9.35416 72.248 10.1839C71.9183 10.5347 71.732 10.5576 71.3626 10.2068C68.6652 7.64592 65.5099 5.88887 61.8614 5.11558C54.8363 3.62697 48.6309 5.30471 43.2957 10.1046C42.8331 10.521 42.6042 10.5499 42.1828 10.0847C41.4364 9.25808 40.6273 8.48631 39.8182 7.7176C39.5282 7.44307 39.5373 7.27987 39.8213 7.0099C43.398 3.62697 47.5792 1.41235 52.4229 0.446889C53.1754 0.297418 53.9601 0.311145 54.6791 0H59.5533Z" fill="white"/>
<path d="M57.314 18.2461C61.1013 18.2537 64.1269 21.3042 64.1239 25.1142C64.1193 28.9303 61.0525 31.9456 57.1873 31.9319C53.4228 31.9197 50.4064 28.8418 50.4155 25.0257C50.4247 21.2554 53.4946 18.24 57.3155 18.2461H57.314ZM59.5488 25.1081C59.5641 23.9184 58.4894 22.8279 57.288 22.8126C56.0973 22.7974 55.0028 23.8711 54.9891 25.0684C54.9738 26.2581 56.0485 27.3501 57.2483 27.3654C58.4421 27.3806 59.5336 26.3099 59.5488 25.1081V25.1081Z" fill="white"/>
<path d="M57.2787 9.11328C61.4263 9.14226 65.0274 10.5577 68.1171 13.3244C68.5461 13.7088 68.5522 13.9192 68.1263 14.3082C67.2836 15.0769 66.4883 15.8975 65.7006 16.7226C65.4273 17.0078 65.2762 16.9956 64.9801 16.7363C60.3302 12.667 54.2012 12.6686 49.5513 16.7439C49.2354 17.02 49.0919 16.9819 48.8323 16.7134C48.0218 15.8746 47.2081 15.0372 46.3517 14.2472C45.9655 13.8903 46.0311 13.7027 46.3731 13.3732C49.1483 10.7056 53.1784 9.12396 57.2787 9.11481V9.11328Z" fill="white"/>
<path d="M13.8216 59.3004C12.4767 59.3004 11.1319 59.2851 9.78699 59.3095C9.38551 59.3172 9.27407 59.1997 9.28323 58.8032C9.30918 57.6135 9.30918 56.4223 9.28323 55.2311C9.27407 54.8285 9.39466 54.7263 9.79004 54.7293C12.5057 54.7461 15.2215 54.7461 17.9356 54.7293C18.3371 54.7263 18.4486 54.8376 18.4394 55.2342C18.4135 56.4238 18.4135 57.615 18.4394 58.8062C18.4486 59.2089 18.328 59.3156 17.9326 59.308C16.5633 59.2851 15.1925 59.2989 13.8216 59.2989V59.3004Z" fill="white"/>
<path d="M27.4979 59.3006C26.1789 59.3006 24.8585 59.2838 23.5395 59.3097C23.1167 59.3189 22.9778 59.2106 22.99 58.7713C23.0205 57.5817 23.0129 56.3905 22.993 55.1993C22.9869 54.8409 23.0816 54.728 23.4541 54.7295C26.1942 54.7448 28.9359 54.7448 31.676 54.7295C32.0332 54.728 32.1553 54.8149 32.1477 55.1886C32.1248 56.4042 32.1141 57.6213 32.1523 58.8354C32.166 59.2991 31.9477 59.3036 31.6104 59.3021C30.2395 59.2914 28.8702 59.2975 27.4994 59.2975L27.4979 59.3006Z" fill="white"/>
<path d="M41.2366 59.3004C39.8917 59.3004 38.5469 59.2851 37.202 59.3095C36.799 59.3172 36.6906 59.1982 36.6982 58.8032C36.7226 57.6135 36.7242 56.4223 36.6982 55.2311C36.6891 54.8269 36.8127 54.7278 37.2066 54.7293C39.9223 54.7461 42.638 54.7461 45.3522 54.7293C45.7552 54.7263 45.8636 54.8406 45.8559 55.2357C45.83 56.4254 45.83 57.6165 45.8559 58.8077C45.8651 59.2119 45.7414 59.3156 45.3476 59.3095C43.9783 59.2867 42.6075 59.3004 41.2366 59.3004Z" fill="white"/>
</g>
<defs>
<clipPath id="clip0_731_487">
<rect width="78" height="73" fill="white"/>
</clipPath>
</defs>
</svg>
