<svg width="182" height="156" viewBox="0 0 182 156" fill="none" xmlns="http://www.w3.org/2000/svg">
<g clip-path="url(#clip0_727_25)">
<path d="M13.0132 0H13.7249C14.3726 0.642813 15.1875 0.33212 15.9169 0.33212C62.3261 0.349976 108.732 0.346405 155.141 0.349976C159.692 0.349976 164.243 0.367832 168.798 0.374974C168.82 4.87467 168.855 9.37436 168.848 13.874C168.848 14.8383 169.022 15.7132 169.389 16.606C173.613 26.8517 177.805 37.1117 182.004 47.3682V54.1356C181.352 54.5391 181.513 55.2891 181.37 55.8604C179.982 61.3315 176.947 65.6241 172.253 68.6881C171.108 69.4345 170.606 70.1845 170.609 71.6237C170.663 99.0468 170.631 126.47 170.691 153.893C170.695 155.604 170.307 156 168.592 156C116.937 155.946 65.2832 155.946 13.6253 156C11.871 156 11.5507 155.536 11.5543 153.868C11.6112 126.388 11.5863 98.9039 11.6183 71.4237C11.6183 70.238 11.3443 69.4988 10.2626 68.8703C7.5119 67.2668 5.3199 65.0134 3.64031 62.31C0.476858 57.2139 -1.12444 51.5215 0.90743 45.8647C4.57262 35.6654 8.97086 25.7304 13.0631 15.6846C13.1093 15.6525 13.1983 15.6204 13.1983 15.5882C13.1983 15.4954 13.1591 15.4025 13.1378 15.3097C13.0986 10.21 13.0559 5.11036 13.0168 0.00714237L13.0132 0ZM39.1322 63.7956C34.3497 69.5774 28.3857 72.5664 20.9664 72.245C19.3757 72.1772 19.18 72.7093 19.18 74.1092C19.2227 98.2004 19.2263 122.295 19.1729 146.39C19.1729 147.886 19.5572 148.229 21.0162 148.226C50.0602 148.179 79.1077 148.179 108.152 148.226C109.579 148.226 110.006 147.961 110.002 146.433C109.945 124.831 109.977 103.232 109.927 81.6301C109.927 80.1588 110.294 79.7731 111.767 79.7802C125.727 79.8374 139.69 79.8481 153.65 79.7731C155.265 79.766 155.575 80.2231 155.568 81.7444C155.515 99.6074 155.532 117.467 155.532 135.33C155.532 139.187 155.561 143.044 155.511 146.901C155.497 147.886 155.742 148.268 156.785 148.215C158.379 148.129 159.984 148.101 161.575 148.222C162.816 148.315 163.016 147.822 163.012 146.715C162.984 122.384 162.98 98.054 163.023 73.7235C163.023 72.3665 162.539 72.1843 161.39 72.2665C157.973 72.5093 154.7 71.8486 151.575 70.463C148.191 68.9631 145.394 66.6883 143.06 63.7242C138.466 69.2845 132.773 72.32 125.62 72.295C118.503 72.27 112.87 69.1417 108.401 63.7563C103.81 69.306 98.1596 72.2986 91.0819 72.2915C83.9757 72.2843 78.3035 69.2417 73.8377 63.7956C64.7708 75.1341 48.1528 75.1698 39.1251 63.7956H39.1322ZM147.921 117.867C147.921 108.26 147.921 98.6504 147.917 89.0439C147.917 88.3368 148.216 87.5404 146.892 87.5476C137.491 87.5976 128.093 87.5833 118.692 87.5583C117.913 87.5583 117.692 87.7904 117.695 88.5618C117.72 96.6862 117.724 104.811 117.695 112.935C117.695 113.806 117.966 114.035 118.799 114.017C120.03 113.989 121.268 113.864 122.485 114.278C124.129 114.839 125.168 116.128 125.197 117.803C125.229 119.553 124.179 120.899 122.453 121.481C121.346 121.856 120.226 121.82 119.119 121.731C117.92 121.635 117.678 122.081 117.681 123.206C117.727 131.034 117.738 138.862 117.674 146.69C117.663 147.983 118.051 148.218 119.25 148.211C128.296 148.158 137.342 148.158 146.387 148.211C147.604 148.218 147.956 147.954 147.949 146.683C147.892 137.076 147.917 127.466 147.917 117.86L147.921 117.867ZM90.9467 15.3132H103.366C122.051 15.3132 140.74 15.299 159.425 15.3454C160.774 15.3454 161.318 15.0704 161.162 13.6312C161.027 12.3991 161.019 11.1278 161.162 9.89932C161.354 8.24586 160.898 7.75304 159.123 7.75304C113.706 7.81375 68.2936 7.79946 22.8772 7.79946C22.5214 7.79946 22.162 7.83518 21.8133 7.79232C21.0518 7.69947 20.7742 7.98159 20.8062 8.7744C20.8632 10.2564 20.9414 11.7528 20.792 13.2205C20.6247 14.8704 21.0482 15.3668 22.8274 15.3632C45.5338 15.2882 68.2438 15.3132 90.9502 15.3132H90.9467ZM9.1381 45.6219C17.4328 45.6219 25.4713 45.6219 33.5099 45.6219C36.748 45.6219 36.8263 45.6362 37.3316 42.4507C38.2746 36.4939 39.118 30.5229 39.9862 24.5555C40.0894 23.8376 40.3456 23.1056 39.0112 23.1198C32.4494 23.1913 25.8841 23.1556 19.3188 23.1484C18.7067 23.1484 18.2406 23.1627 17.9417 23.9091C15.07 31.0693 12.1521 38.2081 9.13454 45.6219H9.1381ZM90.9289 45.6219C94.8858 45.6219 98.8428 45.6004 102.803 45.6397C103.679 45.6469 104.031 45.4862 103.978 44.4827C103.632 37.9188 103.337 31.3514 103.07 24.7804C103.02 23.5877 102.768 23.0841 101.366 23.1056C94.5158 23.202 87.6622 23.1841 80.8122 23.1198C79.5988 23.1091 79.1967 23.4484 79.1504 24.6555C78.8835 31.2836 78.5811 37.9117 78.2074 44.5327C78.1434 45.6397 78.6273 45.6362 79.4137 45.6326C83.2533 45.6147 87.0929 45.6254 90.9324 45.6254L90.9289 45.6219ZM172.951 45.6219C172.876 45.279 172.862 45.1005 172.798 44.9433C169.987 38.0117 167.14 31.0943 164.386 24.1376C163.998 23.1591 163.429 23.1413 162.628 23.1413C157.013 23.1556 151.394 23.1413 145.779 23.1556C144.604 23.1556 143.021 22.7877 142.366 23.3913C141.63 24.0698 142.444 25.6018 142.605 26.7517C143.419 32.6049 144.302 38.4509 145.167 44.297C145.28 45.0719 145.416 45.6612 146.537 45.6504C155.283 45.5897 164.03 45.6183 172.951 45.6183V45.6219ZM124.609 45.6219C128.574 45.6219 132.538 45.6147 136.502 45.629C137.217 45.629 137.708 45.6826 137.537 44.6148C136.48 38.0152 135.434 31.4121 134.559 24.784C134.37 23.3484 133.908 23.1127 132.637 23.1234C125.834 23.177 119.03 23.1913 112.226 23.1127C110.877 23.0984 110.554 23.4305 110.636 24.7662C111.041 31.3371 111.372 37.9153 111.66 44.4934C111.703 45.4647 112.009 45.6504 112.895 45.6397C116.799 45.5969 120.706 45.6219 124.609 45.6219V45.6219ZM44.6335 45.6219C53.0137 45.6219 61.3404 45.6147 69.6672 45.6362C70.4109 45.6362 70.507 45.3005 70.5354 44.6719C70.8664 37.8617 71.2115 31.055 71.5923 24.2448C71.6386 23.3984 71.4357 23.1306 70.5461 23.1341C63.3332 23.1698 56.1202 23.1663 48.9037 23.1377C48.0639 23.1377 47.8682 23.4163 47.7507 24.2376C46.7579 31.3193 45.694 38.3938 44.63 45.6254L44.6335 45.6219ZM125.456 53.3856C121.378 53.3856 117.297 53.4142 113.219 53.3642C112.276 53.3535 111.917 53.6142 112.13 54.5534C112.262 55.1248 112.198 55.8212 112.504 56.2604C114.297 58.8352 116.091 61.4565 119.005 62.9135C126.592 66.7061 134.313 64.1349 138.925 56.3247C139.822 54.8034 138.779 53.3856 136.986 53.3856C133.143 53.3856 129.3 53.3856 125.46 53.3856H125.456ZM91.1352 53.3856C87.2388 53.3856 83.3458 53.3856 79.4493 53.3856C77.6488 53.3856 76.809 54.657 77.8302 56.1961C79.4564 58.6531 81.1823 61.1172 83.8369 62.5993C91.1957 66.7097 99.3339 64.6991 104.447 56.1783C105.323 54.7212 104.369 53.3856 102.647 53.3856C98.8108 53.3856 94.9748 53.3856 91.1388 53.3856H91.1352ZM56.8248 53.3856C52.8037 53.3856 48.7862 53.4249 44.7652 53.3571C43.7795 53.3392 43.5233 53.7213 43.2707 54.5784C42.7262 56.4461 44.1318 57.3961 44.968 58.6103C50.3342 66.3919 62.9666 67.7454 69.6245 56.4211C70.7667 54.482 70.0586 53.382 67.8203 53.382C64.1552 53.382 60.49 53.382 56.8248 53.382V53.3856ZM146.579 53.4463C147.561 59.6852 153.949 64.7741 160.457 64.5956C167.25 64.4099 173.303 59.3995 173.851 53.4463H146.579ZM21.9378 53.3856C17.8634 53.3856 13.7925 53.432 9.71813 53.3606C8.37304 53.3356 8.17021 53.6642 8.57231 54.9391C10.6825 61.6815 18.0983 66.0169 24.9233 64.2777C30.1044 62.9564 33.7234 59.8066 35.4741 54.6248C35.8406 53.5463 35.5488 53.3535 34.5098 53.3678C30.3179 53.4178 26.1297 53.3892 21.9378 53.3892V53.3856Z" fill="white"/>
<path d="M168.866 0L168.795 0.374974C164.243 0.367832 159.692 0.349976 155.137 0.349976C108.728 0.349976 62.3226 0.349976 15.9134 0.33212C15.184 0.33212 14.3691 0.642813 13.7214 0C65.4363 0 117.151 0 168.866 0Z" fill="white"/>
<path d="M13.0596 15.6774L13.1343 15.2988C13.1556 15.3917 13.1948 15.4845 13.1948 15.5774C13.1948 15.6095 13.1058 15.6417 13.0596 15.6738V15.6774Z" fill="white"/>
<path d="M64.6356 133.162C52.633 133.162 40.6268 133.137 28.6242 133.194C27.151 133.202 26.6172 132.962 26.6243 131.302C26.6955 114.753 26.6884 98.2004 26.635 81.6515C26.6315 80.1945 26.9731 79.7731 28.4676 79.7766C52.5938 79.8266 76.7201 79.8231 100.846 79.7802C102.131 79.7802 102.522 80.0266 102.515 81.4015C102.462 98.1289 102.458 114.86 102.515 131.587C102.519 132.998 102.074 133.194 100.825 133.187C88.7618 133.141 76.6987 133.159 64.6356 133.159V133.162ZM64.5288 125.395C74.0477 125.395 83.5665 125.373 93.0853 125.423C94.3806 125.431 94.8788 125.22 94.8681 123.738C94.7969 112.232 94.8076 100.725 94.8574 89.2224C94.8646 87.9439 94.6261 87.5404 93.2455 87.544C74.1509 87.5975 55.0527 87.594 35.9546 87.5511C34.7056 87.5511 34.2679 87.7404 34.2785 89.151C34.3497 100.714 34.3497 112.282 34.2785 123.845C34.2679 125.295 34.7625 125.427 35.9759 125.423C45.4947 125.377 55.0136 125.399 64.5324 125.399L64.5288 125.395Z" fill="white"/>
<path d="M64.6425 121.742C63.1693 121.549 61.9417 121.017 61.262 119.688C60.6037 118.399 60.593 117.081 61.4115 115.835C61.6677 115.442 61.9666 115.064 62.2975 114.731C69.5674 107.425 76.8302 100.111 84.1357 92.8365C86.4949 90.4867 89.6726 90.9295 90.7971 93.6722C91.6013 95.6292 90.7259 97.097 89.3915 98.4362C82.4027 105.439 75.4211 112.446 68.4287 119.445C67.8878 119.988 67.3078 120.495 66.7207 120.988C66.1086 121.502 65.3151 121.545 64.6425 121.738V121.742Z" fill="white"/>
<path d="M79.9476 121.756C78.2253 121.552 76.9371 120.931 76.2681 119.438C75.496 117.706 76.0297 116.196 77.2716 114.921C79.5811 112.549 81.9296 110.217 84.2746 107.882C84.5629 107.596 84.9152 107.361 85.2603 107.143C86.8652 106.132 88.6622 106.311 89.9504 107.586C91.2527 108.878 91.6121 110.8 90.445 112.264C87.8615 115.496 84.876 118.356 81.7304 121.038C81.2286 121.467 80.4493 121.567 79.9476 121.76V121.756Z" fill="white"/>
</g>
<defs>
<clipPath id="clip0_727_25">
<rect width="182" height="156" fill="white"/>
</clipPath>
</defs>
</svg>
