<svg width="90" height="90" viewBox="0 0 90 90" fill="none" xmlns="http://www.w3.org/2000/svg">
<path d="M78.8368 6.66309H61.2239C60.3861 6.66309 59.7073 7.34213 59.7073 8.17973C59.7073 9.01732 60.3861 9.69637 61.2239 9.69637H78.8368C79.6746 9.69637 80.3535 9.01732 80.3535 8.17973C80.3535 7.34213 79.6746 6.66309 78.8368 6.66309Z" fill="white"/>
<path d="M78.8367 20.5244H68.7928C67.955 20.5244 67.2761 21.2035 67.2761 22.0411C67.2761 22.8787 67.955 23.5577 68.7928 23.5577H78.8367C79.6745 23.5577 80.3534 22.8787 80.3534 22.0411C80.3534 21.2035 79.6745 20.5244 78.8367 20.5244Z" fill="white"/>
<path d="M63.6136 20.5244H61.2242C60.3864 20.5244 59.7075 21.2035 59.7075 22.0411C59.7075 22.8787 60.3864 23.5577 61.2242 23.5577H63.6136C64.4513 23.5577 65.1302 22.8787 65.1302 22.0411C65.1302 21.2035 64.4513 20.5244 63.6136 20.5244Z" fill="white"/>
<path d="M78.8369 13.5938H77.2649C76.4272 13.5938 75.7483 14.2728 75.7483 15.1104C75.7483 15.948 76.4272 16.627 77.2649 16.627H78.8369C79.6747 16.627 80.3536 15.948 80.3536 15.1104C80.3536 14.2728 79.6747 13.5938 78.8369 13.5938Z" fill="white"/>
<path d="M71.6033 13.5938H61.2242C60.3864 13.5938 59.7075 14.2728 59.7075 15.1104C59.7075 15.948 60.3864 16.627 61.2242 16.627H71.6033C72.4411 16.627 73.12 15.948 73.12 15.1104C73.12 14.2728 72.4411 13.5938 71.6033 13.5938Z" fill="white"/>
<path d="M81.3669 0H58.6941C55.1667 0 52.2969 2.86981 52.2969 6.39721V23.3931C52.2969 26.9205 55.1665 29.7904 58.6941 29.7904H61.7043L61.5363 33.6983C61.512 34.265 61.8058 34.798 62.2985 35.0798C62.5321 35.2137 62.7919 35.28 63.0517 35.28C63.3388 35.28 63.6255 35.1984 63.8756 35.0367L71.984 29.7904H81.3672C84.8946 29.7904 87.7644 26.9205 87.7644 23.3931V6.39721C87.7641 2.86981 84.8943 0 81.3669 0ZM84.731 23.3931C84.731 25.248 83.2219 26.7571 81.3671 26.7571H71.536C71.2438 26.7571 70.9576 26.8416 70.7121 27.0004L64.693 30.895L64.803 28.3388C64.8208 27.9257 64.6691 27.5233 64.3831 27.2246C64.0969 26.926 63.7014 26.7571 63.2879 26.7571H58.6943C56.8394 26.7571 55.3303 25.248 55.3303 23.3931V6.39721C55.3303 4.54236 56.8394 3.03328 58.6943 3.03328H81.3671C83.2219 3.03328 84.731 4.54236 84.731 6.39721V23.3931Z" fill="white"/>
<path d="M50.4162 68.7984C48.5805 66.821 46.2851 65.3902 43.7592 64.6099C44.6446 63.6855 45.4106 62.6496 46.0343 61.5251H46.752C50.5452 61.5251 53.6312 58.4391 53.6312 54.6459V37.3077C53.6312 25.539 44.0578 15.9644 32.2905 15.9644H24.4269C12.6584 15.9644 3.08356 25.5388 3.08356 37.3077V51.4033C3.08356 53.815 5.04563 55.7771 7.45735 55.7771C7.94058 55.7771 8.41062 55.695 8.8564 55.5452C9.14925 58.9712 10.6037 62.162 12.953 64.6127C10.4284 65.393 8.13411 66.8238 6.29948 68.8009C3.67876 71.6248 2.2356 75.3032 2.2356 79.1582V88.4838C2.2356 89.3212 2.91446 90.0001 3.75224 90.0001H52.9648C53.8026 90.0001 54.4815 89.321 54.4815 88.4834V79.1579C54.4815 75.3016 53.0376 71.6223 50.4162 68.7984ZM44.8835 42.0436L38.7012 33.3904C38.3775 32.9373 37.8322 32.6975 37.2785 32.7673C36.7258 32.8367 36.2552 33.2034 36.0536 33.7227C34.7912 36.9707 32.6036 39.7279 29.7274 41.6961C26.8509 43.6641 23.4884 44.7044 20.0036 44.7044H11.8336V37.9194C11.8336 30.4415 17.9172 24.3576 25.3953 24.3576H31.3218C38.7997 24.3576 44.8836 30.4415 44.8836 37.9194V42.0436H44.8835ZM47.3196 58.4449C47.5956 57.5006 47.7731 56.532 47.8568 55.5454C48.2968 55.6946 48.7675 55.7767 49.2573 55.7767C49.674 55.7767 50.0815 55.7162 50.4719 55.6037C50.0908 57.0824 48.853 58.2164 47.3196 58.4449ZM50.5978 51.4029C50.5978 51.4753 50.5923 51.5451 50.5804 51.6181C50.5361 51.8961 50.4056 52.1509 50.2084 52.3493C49.953 52.6035 49.6151 52.7436 49.2573 52.7436C48.5181 52.7436 47.9166 52.1422 47.9166 51.4029V43.918C47.9166 43.1786 48.5181 42.5773 49.2573 42.5773C49.9964 42.5773 50.5978 43.1786 50.5978 43.918V51.4029ZM8.8005 51.4029C8.8005 51.7608 8.66058 52.0987 8.41079 52.3495C8.15556 52.6037 7.81683 52.7436 7.45735 52.7436C6.71819 52.7436 6.11667 52.1422 6.11667 51.4029V43.918C6.11667 43.1786 6.71819 42.5773 7.45735 42.5773C8.19792 42.5773 8.8005 43.1786 8.8005 43.918V51.4029ZM8.8005 37.9194V39.756C8.37704 39.6191 7.92599 39.5445 7.45735 39.5445C6.98978 39.5445 6.5396 39.6191 6.11667 39.7556V37.3079C6.11667 27.2117 14.3304 18.9978 24.4267 18.9978H32.2901C42.3849 18.9978 50.5976 27.2115 50.5976 37.3079V39.7556C50.175 39.6192 49.7247 39.5447 49.2571 39.5447C48.7895 39.5447 48.3393 39.6192 47.9164 39.7558V37.92C47.9164 28.7695 40.4721 21.325 31.3214 21.325H25.3949C16.2448 21.3245 8.8005 28.769 8.8005 37.9194ZM11.8336 54.2602V51.4031V47.7379H20.0037C24.1028 47.7379 28.0573 46.5143 31.4404 44.1996C34.0764 42.3961 36.2204 40.029 37.7411 37.2643L44.8836 47.2613V54.2602C44.8836 55.7231 44.6191 57.1413 44.1039 58.4916H33.8706C33.0328 58.4916 32.354 59.1707 32.354 60.0083C32.354 60.8459 33.0328 61.5249 33.8706 61.5249H42.4158C41.6248 62.5561 40.6674 63.4561 39.5752 64.1841C38.7215 64.7574 37.7881 65.2188 36.7998 65.5556C36.7854 65.56 36.771 65.5647 36.7566 65.5693L30.162 67.7908C29.0078 68.1805 27.7112 68.1807 26.5518 67.7905L19.9582 65.5691C18.9575 65.232 18.0079 64.766 17.1364 64.1841C13.8159 61.9665 11.8336 58.2564 11.8336 54.2602ZM37.2936 76.1833L29.8753 72.1906V70.9841C30.3014 70.9088 30.7211 70.8034 31.1314 70.665L36.0508 69.0079L37.2936 76.1833ZM26.8422 70.9841V72.1906L19.4237 76.1831L20.6664 69.0085L25.5837 70.665C25.9952 70.8034 26.4157 70.9088 26.8422 70.9841ZM26.8423 86.9671H5.26888V79.1579C5.26888 73.0012 9.94413 67.7773 15.9991 67.0532C16.5669 67.3976 17.1577 67.7038 17.7678 67.9703L15.9029 78.7378C15.8038 79.3096 16.0399 79.8879 16.5108 80.2273C16.7743 80.417 17.0851 80.5133 17.3974 80.5133C17.6437 80.5133 17.8908 80.4536 18.1162 80.3321L21.7055 78.4004L26.8422 83.5354V86.9671H26.8423ZM24.4941 76.8989L28.3586 74.8189L32.223 76.8989L28.3586 80.7619L24.4941 76.8989ZM51.4484 86.967H29.8753V83.5348L35.0118 78.4001L38.6009 80.3319C38.8264 80.4532 39.0734 80.5132 39.3198 80.5132C39.6322 80.5132 39.943 80.4168 40.2065 80.2272C40.6774 79.8881 40.9134 79.3098 40.8143 78.7379L38.9493 67.9703C39.561 67.7029 40.152 67.3958 40.7176 67.0515C46.7733 67.7775 51.4484 73.0013 51.4484 79.1581V86.967Z" fill="white"/>
</svg>
