<svg width="151" height="54" viewBox="0 0 151 54" fill="none" xmlns="http://www.w3.org/2000/svg">
<path d="M52.7939 53.2422V46.7441H68.1522V53.2422H52.7939Z" fill="white"/>
<path d="M28.4357 42.1465H18.3994C18.1492 40.4148 17.8795 38.6765 17.6456 36.9285C17.3889 34.9791 17.4019 34.9791 15.4362 34.9791C14.2406 34.9791 13.0384 35.0051 11.8428 34.9791C11.2482 34.9596 10.9948 35.1156 10.9168 35.7556C10.6569 37.8675 10.3255 39.9794 10.0103 42.1498H0C0.370392 40.2783 0.731039 38.4264 1.10143 36.5744C3.46024 24.7673 5.81039 12.9625 8.15187 1.15974C8.33707 0.220762 8.70746 0.00956683 9.60745 0.0258121C12.746 0.0875441 15.8911 0.0777969 19.0297 0.0258121C19.8095 0.0258121 20.0531 0.262993 20.2026 1.00053C22.9188 14.5772 25.6523 28.1507 28.4032 41.7209C28.4221 41.862 28.4329 42.0042 28.4357 42.1465ZM16.3492 27.6395C15.6637 22.7269 14.9879 17.8923 14.3121 13.0513H14.0879L12.0507 27.6395H16.3492Z" fill="white"/>
<path d="M151 42.1952C148.076 42.1952 145.269 42.2114 142.461 42.1627C142.257 42.1627 141.958 41.7306 141.883 41.4479C140.434 36.1909 139.014 30.9242 137.588 25.664C137.519 25.3494 137.368 25.0588 137.149 24.8225V42.1107H128.9V0.0874634H137.117V21.3395L137.276 21.3817C137.388 21.1816 137.489 20.9755 137.578 20.7644C138.758 17.5544 139.943 14.3443 141.09 11.1212C141.315 10.4909 141.584 10.2148 142.312 10.231C144.772 10.2862 147.234 10.2537 149.827 10.2537C149.697 10.6534 149.603 10.9815 149.502 11.2999C148.151 15.1013 146.779 18.8962 145.467 22.7106C145.293 23.2456 145.283 23.8203 145.438 24.3611C147.16 29.943 148.927 35.5086 150.682 41.0807C150.773 41.4122 150.867 41.75 151 42.1952Z" fill="white"/>
<path d="M96.0834 27.5746H83.8474V31.402C83.8474 32.7016 83.8474 34.0012 83.8474 35.2781C83.8669 36.7077 84.4648 37.3673 85.6961 37.3673C86.9275 37.3673 87.5416 36.6914 87.5708 35.2814C87.6001 33.7673 87.5708 32.2532 87.5708 30.6742H96.0996C96.0996 33.829 96.47 37.0358 94.3971 39.8365C93.5742 40.9312 92.4288 41.7403 91.1221 42.1498C88.2269 43.1497 85.1081 43.3108 82.1254 42.6145C77.9017 41.6398 75.4389 39.0015 75.3024 34.7128C75.127 29.1309 75.1335 23.5328 75.3447 17.9509C75.5136 13.4445 78.2493 10.6438 82.6875 9.86728C84.8609 9.47642 87.0908 9.52725 89.2441 10.0167C93.2762 10.9362 95.713 13.4412 96.0184 17.561C96.2751 20.8263 96.0834 24.1339 96.0834 27.5746ZM87.4116 21.7523C87.4116 20.105 87.4441 18.5975 87.4116 17.0899C87.3792 15.9365 86.7358 15.3029 85.6994 15.2639C84.6045 15.2282 83.8864 15.8228 83.8149 17.0152C83.7272 18.3928 83.75 19.7801 83.789 21.1642C83.8235 21.2967 83.8915 21.418 83.9865 21.5164C84.0816 21.6149 84.2004 21.6872 84.3315 21.7263C85.3128 21.7783 86.3102 21.7458 87.4116 21.7458V21.7523Z" fill="white"/>
<path d="M63.1034 21.2778C63.1034 20.1406 63.1652 19.1432 63.1034 18.1522C62.9345 15.9493 61.7518 14.9421 59.8544 15.2768C59.4807 15.3133 59.1283 15.4673 58.8475 15.7165C58.5668 15.9657 58.3722 16.2975 58.2916 16.6641C58.1552 17.1616 58.0746 17.6727 58.0511 18.1879C57.9667 23.5857 57.8963 28.9824 57.84 34.378C57.8205 36.2429 58.8147 37.1754 60.6666 37.1559C61.2432 37.1871 61.8103 36.9997 62.2548 36.6311C62.6993 36.2625 62.9884 35.7399 63.0644 35.1675C63.3049 33.9783 63.2821 32.7339 63.3536 31.5123C63.3861 30.999 63.3536 30.4856 63.3536 29.8878H70.8264C70.8264 32.5325 71.1708 35.213 70.0271 37.7602C68.9875 40.0801 67.2622 41.6429 64.7897 42.3089C62.2438 42.9782 59.5824 43.0825 56.992 42.6143C53.8404 42.062 51.8974 40.21 51.1144 37.1657C50.7872 35.9824 50.605 34.7637 50.5718 33.5365C50.5458 28.2405 50.4744 22.9348 50.6888 17.6454C50.8772 12.9115 53.2296 10.3805 57.9277 9.7794C60.0449 9.53001 62.1881 9.61332 64.2796 10.0263C68.1102 10.7671 70.0369 12.9927 70.5015 16.8493C70.6737 18.2692 70.5275 19.7312 70.5275 21.2291C70.3516 21.2633 70.1736 21.285 69.9947 21.294C67.7658 21.281 65.5337 21.2778 63.1034 21.2778Z" fill="white"/>
<path d="M109.464 42.1372H101.306V0.0912476H109.464V42.1372Z" fill="white"/>
<path d="M40.3759 42.1661H32.1753V10.3091H39.7391V13.334C41.9095 10.7673 44.5217 9.27269 48.0112 9.50337V18.7534C47.1339 18.669 46.2794 18.526 45.4119 18.5195C42.2441 18.4903 40.3791 20.3195 40.3694 23.4743C40.3694 29.2901 40.3694 35.1059 40.3694 40.9217L40.3759 42.1661Z" fill="white"/>
<path d="M123.425 42.15H115.263V10.3093H123.425V42.15Z" fill="white"/>
<path d="M123.448 6.59882H115.28V0H123.448V6.59882Z" fill="white"/>
</svg>
