<svg width="151" height="54" viewBox="0 0 151 54" fill="none" xmlns="http://www.w3.org/2000/svg">
<path d="M52.7939 53.2422V46.7441H68.1522V53.2422H52.7939Z" fill="#CF0000"/>
<path d="M28.4357 42.1465H18.3994C18.1492 40.4147 17.8795 38.6765 17.6456 36.9285C17.3889 34.9791 17.4019 34.9791 15.4362 34.9791C14.2406 34.9791 13.0384 35.005 11.8428 34.9791C11.2482 34.9596 10.9948 35.1155 10.9168 35.7556C10.6569 37.8675 10.3255 39.9793 10.0103 42.1497H0C0.370392 40.2783 0.731039 38.4263 1.10143 36.5743C3.46024 24.7673 5.81039 12.9624 8.15187 1.15968C8.33707 0.220701 8.70746 0.0095058 9.60745 0.0257511C12.746 0.087483 15.8911 0.0777359 19.0297 0.0257511C19.8095 0.0257511 20.0531 0.262932 20.2026 1.00047C22.9188 14.5772 25.6523 28.1506 28.4032 41.7208C28.4221 41.862 28.4329 42.0041 28.4357 42.1465ZM16.3492 27.6394C15.6637 22.7269 14.9879 17.8923 14.3121 13.0512H14.0879L12.0507 27.6394H16.3492Z" fill="#CF0000"/>
<path d="M151 42.1951C148.076 42.1951 145.269 42.2114 142.461 42.1626C142.257 42.1626 141.958 41.7305 141.883 41.4478C140.434 36.1909 139.014 30.9241 137.588 25.6639C137.519 25.3493 137.368 25.0587 137.149 24.8224V42.1106H128.9V0.0874023H137.117V21.3394L137.276 21.3817C137.388 21.1815 137.489 20.9754 137.578 20.7644C138.758 17.5543 139.943 14.3442 141.09 11.1212C141.315 10.4909 141.584 10.2147 142.312 10.2309C144.772 10.2862 147.234 10.2537 149.827 10.2537C149.697 10.6533 149.603 10.9815 149.502 11.2999C148.151 15.1013 146.779 18.8962 145.467 22.7105C145.293 23.2456 145.283 23.8202 145.438 24.3611C147.16 29.9429 148.927 35.5086 150.682 41.0807C150.773 41.4121 150.867 41.75 151 42.1951Z" fill="#CF0000"/>
<path d="M96.0836 27.5747H83.8477V31.4021C83.8477 32.7017 83.8477 34.0013 83.8477 35.2782C83.8672 36.7078 84.465 37.3673 85.6964 37.3673C86.9278 37.3673 87.5418 36.6915 87.5711 35.2814C87.6003 33.7674 87.5711 32.2533 87.5711 30.6743H96.0999C96.0999 33.8291 96.4702 37.0359 94.3974 39.8366C93.5745 40.9312 92.4291 41.7403 91.1223 42.1499C88.2272 43.1498 85.1084 43.3109 82.1257 42.6145C77.9019 41.6398 75.4391 39.0016 75.3027 34.7128C75.1272 29.131 75.1337 23.5329 75.3449 17.951C75.5139 13.4445 78.2496 10.6439 82.6878 9.86734C84.8612 9.47648 87.091 9.52731 89.2444 10.0168C93.2764 10.9363 95.7132 13.4413 96.0186 17.5611C96.2753 20.8264 96.0836 24.1339 96.0836 27.5747ZM87.4119 21.7524C87.4119 20.1051 87.4444 18.5975 87.4119 17.09C87.3794 15.9366 86.7361 15.303 85.6996 15.264C84.6047 15.2283 83.8867 15.8228 83.8152 17.0153C83.7275 18.3928 83.7502 19.7802 83.7892 21.1643C83.8237 21.2967 83.8917 21.418 83.9868 21.5165C84.0818 21.6149 84.2007 21.6872 84.3318 21.7264C85.313 21.7784 86.3105 21.7459 87.4119 21.7459V21.7524Z" fill="#CF0000"/>
<path d="M63.1032 21.2779C63.1032 20.1407 63.1649 19.1433 63.1032 18.1523C62.9342 15.9495 61.7516 14.9423 59.8541 15.2769C59.4805 15.3135 59.128 15.4674 58.8473 15.7166C58.5665 15.9659 58.3719 16.2976 58.2913 16.6643C58.155 17.1617 58.0743 17.6728 58.0509 18.1881C57.9664 23.5858 57.896 28.9825 57.8397 34.3781C57.8202 36.243 58.8144 37.1755 60.6664 37.156C61.243 37.1872 61.8101 36.9998 62.2546 36.6313C62.699 36.2627 62.9882 35.74 63.0642 35.1676C63.3046 33.9785 63.2819 32.7341 63.3533 31.5124C63.3858 30.9991 63.3533 30.4857 63.3533 29.8879H70.8262C70.8262 32.5326 71.1706 35.2131 70.0269 37.7604C68.9872 40.0802 67.262 41.643 64.7894 42.309C62.2436 42.9784 59.5821 43.0826 56.9917 42.6144C53.8401 42.0621 51.8972 40.2101 51.1142 37.1658C50.787 35.9825 50.6048 34.7638 50.5716 33.5366C50.5456 28.2406 50.4741 22.9349 50.6886 17.6455C50.877 12.9116 53.2293 10.3806 57.9274 9.77953C60.0447 9.53013 62.1879 9.61344 64.2793 10.0264C68.11 10.7672 70.0366 12.9928 70.5013 16.8495C70.6735 18.2693 70.5273 19.7314 70.5273 21.2292C70.3514 21.2634 70.1733 21.2851 69.9944 21.2942C67.7656 21.2812 65.5335 21.2779 63.1032 21.2779Z" fill="#CF0000"/>
<path d="M109.465 42.1373H101.306V0.0913086H109.465V42.1373Z" fill="#CF0000"/>
<path d="M40.3759 42.166H32.1753V10.3091H39.7391V13.3339C41.9095 10.7672 44.5217 9.27263 48.0112 9.50331V18.7534C47.1339 18.6689 46.2794 18.5259 45.4119 18.5194C42.2441 18.4902 40.3791 20.3194 40.3694 23.4742C40.3694 29.29 40.3694 35.1058 40.3694 40.9216L40.3759 42.166Z" fill="#CF0000"/>
<path d="M123.425 42.15H115.264V10.3093H123.425V42.15Z" fill="#CF0000"/>
<path d="M123.448 6.59882H115.28V0H123.448V6.59882Z" fill="#CF0000"/>
</svg>
